<svg width="45" height="45" viewBox="0 0 45 45" fill="none" xmlns="http://www.w3.org/2000/svg">
<circle cx="22.5" cy="22.5" r="22.5" fill="#F6F6F5"/>
<g clip-path="url(#clip0_10435_4975)">
<path d="M22.965 13.115H22.0371V26.0708H22.965V13.115Z" fill="#1B1F23"/>
<path d="M12.5401 23.7816L11.8839 24.4377L19.6054 32.1592L20.2615 31.5031L12.5401 23.7816Z" fill="#1B1F23"/>
<path d="M32.4595 23.7795L24.7302 31.5088L25.3864 32.1649L33.1156 24.4356L32.4595 23.7795Z" fill="#1B1F23"/>
<path d="M22.5011 26.5349C22.4 26.5349 22.299 26.502 22.215 26.4362C22.1754 26.4052 21.2347 25.6631 20.2856 24.4611C19.0091 22.8446 18.3344 21.1612 18.3344 19.593C18.3344 18.0247 19.0091 16.3414 20.2856 14.7249C21.2347 13.5229 22.1754 12.7808 22.215 12.7498C22.383 12.6182 22.6192 12.6182 22.7872 12.7498C22.8267 12.7808 23.7674 13.5229 24.7166 14.7249C25.9931 16.3414 26.6678 18.0248 26.6678 19.593C26.6678 21.1612 25.9931 22.8446 24.7166 24.4611C23.7674 25.6631 22.8268 26.4052 22.7872 26.4362C22.7032 26.5019 22.6021 26.5349 22.5011 26.5349ZM22.5011 13.7246C21.661 14.4737 19.2623 16.8531 19.2623 19.593C19.2623 22.3329 21.6609 24.7121 22.5011 25.4613C23.3412 24.7122 25.7399 22.3329 25.7399 19.593C25.7399 16.8531 23.3413 14.4738 22.5011 13.7246Z" fill="#1B1F23"/>
<path d="M18.9558 32.3433C17.5753 32.3433 15.1266 32.094 13.5379 30.5053C11.272 28.2394 11.7308 24.2236 11.7515 24.0537C11.7772 23.8419 11.9442 23.6749 12.156 23.6492C12.3259 23.6285 16.3417 23.1697 18.6077 25.4356C20.8736 27.7016 20.4148 31.7174 20.3941 31.8872C20.3684 32.0991 20.2014 32.2661 19.9895 32.2918C19.9388 32.298 19.5443 32.3433 18.9558 32.3433ZM12.6445 24.5422C12.5945 25.5382 12.6172 28.2723 14.1941 29.8492C15.7707 31.4258 18.5045 31.4487 19.501 31.3987C19.5511 30.4027 19.5284 27.6686 17.9515 26.0917C16.3749 24.5151 13.6412 24.4924 12.6445 24.5422Z" fill="#1B1F23"/>
<path d="M26.0373 32.349C25.448 32.349 25.0533 32.3036 25.0025 32.2975C24.7906 32.2717 24.6237 32.1048 24.5979 31.8929C24.5773 31.7229 24.118 27.7032 26.3861 25.4351C28.6541 23.1671 32.6738 23.6264 32.8438 23.647C33.0557 23.6727 33.2226 23.8397 33.2484 24.0516C33.269 24.2216 33.7283 28.2413 31.4603 30.5093C29.8702 32.0994 27.4192 32.349 26.0373 32.349ZM25.491 31.4044C26.4878 31.4545 29.2253 31.432 30.8042 29.8532C32.3829 28.2744 32.4055 25.5371 32.3553 24.54C31.3586 24.49 28.6211 24.5124 27.0422 26.0912C25.4634 27.67 25.4409 30.4073 25.491 31.4044Z" fill="#1B1F23"/>
</g>
<defs>
<clipPath id="clip0_10435_4975">
<rect width="21.6" height="21.6" fill="white" transform="translate(11.7 11.7)"/>
</clipPath>
</defs>
</svg>
